<svg xmlns="http://www.w3.org/2000/svg" width="25.821" height="24.935" viewBox="0 0 25.821 24.935">
  <g id="noun-run-program-1871660" transform="translate(-74.303 -13.785)">
    <path id="Tracciato_16" data-name="Tracciato 16" d="M98.835,13.785H75.552A1.255,1.255,0,0,0,74.3,15.034v17.2a1.255,1.255,0,0,0,1.249,1.249h8.62V35.5H81.836a1.427,1.427,0,0,0-1.41,1.41v1.41a.381.381,0,0,0,.4.4H93.517a.381.381,0,0,0,.4-.4v-1.41a1.427,1.427,0,0,0-1.41-1.41h-2.3V33.483h8.661a1.255,1.255,0,0,0,1.249-1.249v-17.2a1.318,1.318,0,0,0-1.289-1.249Zm-5.72,23.081v1.007H81.272V36.866a.62.62,0,0,1,.6-.6H92.551a.585.585,0,0,1,.564.6Zm-3.706-1.41H84.978V33.442h4.431Zm9.869-3.222a.447.447,0,0,1-.443.443H75.552a.447.447,0,0,1-.443-.443v-17.2a.447.447,0,0,1,.443-.443H98.835a.447.447,0,0,1,.443.443Z"/>
    <path id="Tracciato_17" data-name="Tracciato 17" d="M144.2,62.891H123.816a.381.381,0,0,0-.4.4v13.9a.381.381,0,0,0,.4.4H144.2a.381.381,0,0,0,.4-.4v-13.9A.4.4,0,0,0,144.2,62.891Zm-.4.806V65.63H124.219V63.7ZM124.219,76.788V66.436H143.8V76.788Z" transform="translate(-46.814 -46.81)"/>
    <path id="Tracciato_18" data-name="Tracciato 18" d="M158.276,92.981h.685a.4.4,0,1,0,0-.806h-.685a.381.381,0,0,0-.4.4A.4.4,0,0,0,158.276,92.981Z" transform="translate(-79.662 -74.725)"/>
    <path id="Tracciato_19" data-name="Tracciato 19" d="M199.636,92.981h.685a.4.4,0,1,0,0-.806h-.685a.4.4,0,1,0,0,.806Z" transform="translate(-119.089 -74.725)"/>
    <path id="Tracciato_20" data-name="Tracciato 20" d="M240.126,92.981h.685a.4.4,0,1,0,0-.806h-.685a.381.381,0,0,0-.4.4A.4.4,0,0,0,240.126,92.981Z" transform="translate(-157.686 -74.725)"/>
    <path id="Tracciato_21" data-name="Tracciato 21" d="M174.559,301.54h-2.5a.4.4,0,1,0,0,.806h2.5a.4.4,0,1,0,0-.806Z" transform="translate(-92.804 -274.301)"/>
    <path id="Tracciato_22" data-name="Tracciato 22" d="M176.988,241.23H172.92a.4.4,0,0,0,0,.806h4.068a.4.4,0,1,0,0-.806Z" transform="translate(-93.622 -216.811)"/>
    <path id="Tracciato_23" data-name="Tracciato 23" d="M178.2,180.06h-5.277a.4.4,0,0,0,0,.806H178.2a.4.4,0,1,0,0-.806Z" transform="translate(-93.628 -158.501)"/>
    <path id="Tracciato_24" data-name="Tracciato 24" d="M401.435,212.3a1.715,1.715,0,1,0,1.41,1.974A1.724,1.724,0,0,0,401.435,212.3Zm.6,1.853a.939.939,0,0,1-1.047.765.913.913,0,0,1,.161-1.813.874.874,0,0,1,.886,1.047Z" transform="translate(-309.932 -189.206)"/>
    <path id="Tracciato_25" data-name="Tracciato 25" d="M353,161.544H352.2l.524-.524a.4.4,0,0,0,.161-.2c.04-.121.04-.161-.121-.363-.322-.322-1.168-1.249-1.208-1.289a.389.389,0,0,0-.564,0l-.564.564v-.806a.381.381,0,0,0-.4-.4h-1.772a.4.4,0,0,0-.4.4v.806l-.564-.644a.389.389,0,0,0-.564,0l-1.249,1.249a.389.389,0,0,0,0,.564l.564.564h-.806a.4.4,0,0,0-.4.4v1.773c0,.282.121.363.4.4h.806l-.524.524a.4.4,0,0,0-.161.2.409.409,0,0,0,.121.4l1.249,1.249a.389.389,0,0,0,.564,0l.564-.564v.806a.413.413,0,0,0,.4.4h1.772a.4.4,0,0,0,.4-.4v-.806l.564.564a.389.389,0,0,0,.564,0l1.249-1.249a.389.389,0,0,0,0-.564l-.564-.564h.806a.4.4,0,0,0,.4-.4v-1.772a.366.366,0,0,0-.121-.282c-.121,0-.242-.041-.323-.041Zm-.443,1.732h-.685a.485.485,0,0,0-.4.282c-.04.121-.121.282-.161.4a.428.428,0,0,0,.081.483l.483.483-.685.685-.483-.483a.428.428,0,0,0-.483-.081,1.2,1.2,0,0,1-.4.161.387.387,0,0,0-.282.363v.685h-.967v-.685a.486.486,0,0,0-.282-.4,4.243,4.243,0,0,1-.4-.161.373.373,0,0,0-.483.081l-.483.483-.685-.685.483-.483a.428.428,0,0,0,.081-.483,2.762,2.762,0,0,1-.161-.4.387.387,0,0,0-.363-.282h-.685v-.967h.685a.485.485,0,0,0,.4-.282,4.241,4.241,0,0,1,.161-.4.422.422,0,0,0-.04-.483l-.483-.483.685-.685.483.483a.428.428,0,0,0,.483.081,1.2,1.2,0,0,1,.4-.161.387.387,0,0,0,.282-.363v-.685h.967v.685a.485.485,0,0,0,.282.4c.322.121.4.2.564.2a.457.457,0,0,0,.322-.121c.04-.04-.2.161.483-.483l.685.685-.483.483a.428.428,0,0,0-.081.483,2.056,2.056,0,0,1,.161.4.387.387,0,0,0,.363.282h.685Z" transform="translate(-257.875 -137.971)"/>
  </g>
</svg>
