<svg xmlns="http://www.w3.org/2000/svg" width="31.891" height="31.603" viewBox="0 0 31.891 31.603">
  <g id="Raggruppa_98" data-name="Raggruppa 98" transform="translate(-6329.297 -3013.431)">
    <g id="Rettangolo_39" data-name="Rettangolo 39" transform="translate(6354.18 3019.518) rotate(30)" fill="#fff" stroke="#000" stroke-width="1">
      <rect width="5.571" height="15.48" rx="2" stroke="none"/>
      <rect x="0.5" y="0.5" width="4.571" height="14.48" rx="1.5" fill="none"/>
    </g>
    <path id="Icon_awesome-hand-paper" data-name="Icon awesome-hand-paper" d="M.755,2.464a.782.782,0,0,1,.785.785V4.927h.154V1.536A.782.782,0,0,1,2.478.751a.77.77,0,0,1,.755.77V4.927h.154V.785A.782.782,0,0,1,4.172,0a.77.77,0,0,1,.755.77V4.927h.154V1.555A.782.782,0,0,1,5.866.77a.77.77,0,0,1,.755.77V6.081l.609-.838a.77.77,0,1,1,1.245.906L6.057,9.473a.924.924,0,0,1-.747.38h-3.8a.924.924,0,0,1-.9-.712L.1,6.973A3.7,3.7,0,0,1,0,6.127V3.233A.77.77,0,0,1,.755,2.464Z" transform="translate(6360.689 3015.733) rotate(90)" fill="#fff" stroke="#000" stroke-width="1"/>
    <g id="Rettangolo_40" data-name="Rettangolo 40" transform="translate(6350.835 3016.443) rotate(90)" fill="#fff" stroke="#000" stroke-width="1">
      <rect width="5.571" height="15.48" rx="2" stroke="none"/>
      <rect x="0.5" y="0.5" width="4.571" height="14.48" rx="1.5" fill="none"/>
    </g>
    <path id="Icon_awesome-hand-paper-2" data-name="Icon awesome-hand-paper" d="M.755,2.464a.782.782,0,0,1,.785.785V4.927h.154V1.536A.782.782,0,0,1,2.478.751a.77.77,0,0,1,.755.77V4.927h.154V.785A.782.782,0,0,1,4.172,0a.77.77,0,0,1,.755.77V4.927h.154V1.555A.782.782,0,0,1,5.866.77a.77.77,0,0,1,.755.77V6.081l.609-.838a.77.77,0,1,1,1.245.906L6.057,9.473a.924.924,0,0,1-.747.38h-3.8a.924.924,0,0,1-.9-.712L.1,6.973A3.7,3.7,0,0,1,0,6.127V3.233A.77.77,0,0,1,.755,2.464Z" transform="translate(6329.98 3018.461) rotate(-30)" fill="#fff" stroke="#000" stroke-width="1"/>
    <g id="Rettangolo_41" data-name="Rettangolo 41" transform="translate(6347.919 3037.498) rotate(150)" fill="#fff" stroke="#000" stroke-width="1">
      <rect width="5.571" height="15.48" rx="2" stroke="none"/>
      <rect x="0.5" y="0.5" width="4.571" height="14.48" rx="1.5" fill="none"/>
    </g>
    <path id="Icon_awesome-hand-paper-3" data-name="Icon awesome-hand-paper" d="M.755,2.464a.782.782,0,0,1,.785.785V4.927h.154V1.536A.782.782,0,0,1,2.478.751a.77.77,0,0,1,.755.77V4.927h.154V.785A.782.782,0,0,1,4.172,0a.77.77,0,0,1,.755.77V4.927h.154V1.555A.782.782,0,0,1,5.866.77a.77.77,0,0,1,.755.77V6.081l.609-.838a.77.77,0,1,1,1.245.906L6.057,9.473a.924.924,0,0,1-.747.38h-3.8a.924.924,0,0,1-.9-.712L.1,6.973A3.7,3.7,0,0,1,0,6.127V3.233A.77.77,0,0,1,.755,2.464Z" transform="translate(6346.888 3044.351) rotate(-150)" fill="#fff" stroke="#000" stroke-width="1"/>
  </g>
</svg>
