<svg id="_9040245_ethernet_icon" data-name="9040245_ethernet_icon" xmlns="http://www.w3.org/2000/svg" width="20.762" height="20.762" viewBox="0 0 20.762 20.762">
  <path id="Tracciato_7" data-name="Tracciato 7" d="M17.571,16.625V7.542a.649.649,0,0,0-.649-.649H14.976V4.946a.649.649,0,0,0-.649-.649h-1.3V3.649A.649.649,0,0,0,12.381,3H7.19a.649.649,0,0,0-.649.649V4.3h-1.3a.649.649,0,0,0-.649.649V6.893H2.649A.649.649,0,0,0,2,7.542v9.083a.649.649,0,0,0,.649.649H16.922A.649.649,0,0,0,17.571,16.625Zm-13.3-3.244H4.92a.324.324,0,0,1,.324.324v1.946a.324.324,0,0,1-.324.324H4.271a.324.324,0,0,1-.324-.324V13.705A.324.324,0,0,1,4.271,13.381Zm2.6,0h.649a.324.324,0,0,1,.324.324v1.946a.324.324,0,0,1-.324.324H6.866a.324.324,0,0,1-.324-.324V13.705A.324.324,0,0,1,6.866,13.381Zm2.271.324a.324.324,0,0,1,.324-.324h.649a.324.324,0,0,1,.324.324v1.946a.324.324,0,0,1-.324.324H9.461a.324.324,0,0,1-.324-.324Zm2.92-.324h.649a.324.324,0,0,1,.324.324v1.946a.324.324,0,0,1-.324.324h-.649a.324.324,0,0,1-.324-.324V13.705A.324.324,0,0,1,12.056,13.381Zm2.271.324a.324.324,0,0,1,.324-.324H15.3a.324.324,0,0,1,.324.324v1.946a.324.324,0,0,1-.324.324h-.649a.324.324,0,0,1-.324-.324Z" transform="translate(0.595 0.893)"/>
  <path id="Tracciato_8" data-name="Tracciato 8" d="M2.6,0A2.6,2.6,0,0,0,0,2.6V18.167a2.6,2.6,0,0,0,2.6,2.6H18.167a2.6,2.6,0,0,0,2.6-2.6V2.6a2.6,2.6,0,0,0-2.6-2.6ZM1.3,2.6A1.3,1.3,0,0,1,2.6,1.3H18.167a1.3,1.3,0,0,1,1.3,1.3V18.167a1.3,1.3,0,0,1-1.3,1.3H2.6a1.3,1.3,0,0,1-1.3-1.3Z"/>
</svg>
