<svg xmlns="http://www.w3.org/2000/svg" width="20.762" height="18.167" viewBox="0 0 20.762 18.167">
  <g id="_9041209_gpu_card_icon" data-name="9041209_gpu_card_icon" transform="translate(0 -1)">
    <path id="Tracciato_9" data-name="Tracciato 9" d="M4,8.446a1.946,1.946,0,1,1,1.946,1.946A1.946,1.946,0,0,1,4,8.446ZM13.732,6.5a1.946,1.946,0,1,0,1.946,1.946A1.946,1.946,0,0,0,13.732,6.5Z" transform="translate(1.19 1.637)"/>
    <path id="Tracciato_10" data-name="Tracciato 10" d="M0,1.649A.649.649,0,0,1,.649,1h1.3a.649.649,0,0,1,.649.649V4.893H20.113a.649.649,0,0,1,.649.649v9.083a.649.649,0,0,1-.649.649H2.6v3.244a.649.649,0,0,1-1.3,0V2.3H.649A.649.649,0,0,1,0,1.649Zm7.137,5.19a3.244,3.244,0,1,0,3.244,3.244A3.244,3.244,0,0,0,7.137,6.839Zm4.542,3.244a3.244,3.244,0,1,0,3.244-3.244A3.244,3.244,0,0,0,11.678,10.083Z"/>
    <path id="Tracciato_11" data-name="Tracciato 11" d="M3,12.5H7.542v1.3a.649.649,0,0,1-.649.649H3.649A.649.649,0,0,1,3,13.8Zm5.19,1.3V12.5h5.19v1.3a.649.649,0,0,1-.649.649H8.839A.649.649,0,0,1,8.19,13.8Z" transform="translate(0.893 3.422)"/>
  </g>
</svg>
